<?xml version="1.0" encoding="utf-8"?>
<!-- Generator: Adobe Illustrator 26.5.0, SVG Export Plug-In . SVG Version: 6.00 Build 0)  -->
<svg version="1.1" id="레이어_1" xmlns="http://www.w3.org/2000/svg" xmlns:xlink="http://www.w3.org/1999/xlink" x="0px"
	 y="0px" viewBox="0 0 133 34" style="enable-background:new 0 0 133 34;" xml:space="preserve">
<style type="text/css">
	.st0{fill:#FFFFFF;}
	.st1{fill:#3BBFAD;}
	.st2{fill:#FF4713;}
</style>
<g>
	<g>
		<path class="st0" d="M46.4,25.3l-0.3,1.5c0,0,0,0.1,0,0.1c0,0-0.1,0-0.1,0h-0.8c-0.1,0-0.1,0-0.1-0.1c0,0,0,0,0,0l0.8-3.7
			c0,0,0-0.1,0-0.1c0,0,0.1,0,0.1,0h0.8c0.1,0,0.1,0,0.1,0.1c0,0,0,0,0,0l-0.3,1.3h1.3l0.3-1.2c0,0,0-0.1,0-0.1c0,0,0.1,0,0.1,0h0.8
			c0.1,0,0.1,0,0.1,0.1c0,0,0,0,0,0l-0.8,3.7c0,0,0,0.1,0,0.1c0,0-0.1,0-0.1,0h-0.8c-0.1,0-0.1,0-0.1-0.1c0,0,0,0,0,0l0.3-1.5H46.4z
			"/>
		<path class="st0" d="M51.6,23h0.6c0.1,0,0.1,0,0.1,0.1l0.7,3.7c0,0,0,0,0,0c0,0.1,0,0.1-0.1,0.1h-0.8c-0.1,0-0.1,0-0.1-0.1
			l-0.1-0.5h-1.4l-0.3,0.5c0,0.1-0.1,0.1-0.2,0.1h-0.8c-0.1,0-0.1,0-0.1,0c0,0,0,0,0-0.1l2.2-3.7C51.4,23.1,51.5,23,51.6,23z
			 M51.8,25.4l-0.2-1.2L51,25.4H51.8z"/>
		<path class="st0" d="M54.6,23h1.3c0.3,0,0.6,0.1,0.8,0.2s0.5,0.3,0.6,0.6c0.1,0.3,0.2,0.5,0.2,0.9c0,0.1,0,0.2,0,0.3
			c-0.1,0.4-0.2,0.7-0.4,1c-0.2,0.3-0.5,0.5-0.9,0.7c-0.3,0.2-0.7,0.2-1,0.2h-1.4c-0.1,0-0.1,0-0.1-0.1c0,0,0,0,0,0l0.8-3.7
			C54.5,23.1,54.5,23,54.6,23z M56.5,24.8c0-0.2,0-0.3-0.1-0.4c-0.1-0.1-0.2-0.2-0.3-0.3c-0.1-0.1-0.3-0.1-0.4-0.1h-0.4l-0.4,2h0.4
			c0.2,0,0.4,0,0.5-0.1c0.2-0.1,0.3-0.2,0.4-0.4c0.1-0.2,0.2-0.3,0.2-0.5C56.5,24.9,56.5,24.8,56.5,24.8z"/>
		<path class="st0" d="M58.7,23.9c0.2-0.3,0.5-0.5,0.9-0.7c0.3-0.2,0.7-0.3,1.1-0.3c0.3,0,0.6,0.1,0.9,0.2c0.2,0.1,0.4,0.3,0.6,0.6
			c0.1,0.2,0.2,0.5,0.2,0.8c0,0.1,0,0.3,0,0.4c-0.1,0.4-0.2,0.7-0.5,1c-0.2,0.3-0.5,0.5-0.9,0.7c-0.3,0.2-0.7,0.3-1.1,0.3
			c-0.3,0-0.6-0.1-0.9-0.2c-0.3-0.1-0.4-0.3-0.6-0.6c-0.1-0.2-0.2-0.5-0.2-0.8c0-0.1,0-0.3,0-0.4C58.3,24.6,58.4,24.2,58.7,23.9z
			 M59.2,25.2c0,0.2,0,0.3,0.1,0.4c0.1,0.1,0.2,0.2,0.3,0.3C59.7,26,59.8,26,60,26c0.2,0,0.4,0,0.5-0.1c0.2-0.1,0.3-0.2,0.4-0.4
			c0.1-0.2,0.2-0.3,0.2-0.5c0-0.1,0-0.2,0-0.2c0-0.2,0-0.3-0.1-0.4c-0.1-0.1-0.2-0.2-0.3-0.3c-0.1-0.1-0.3-0.1-0.4-0.1
			c-0.2,0-0.4,0-0.5,0.1c-0.2,0.1-0.3,0.2-0.4,0.4c-0.1,0.2-0.2,0.3-0.2,0.5C59.2,25.1,59.2,25.1,59.2,25.2z"/>
		<path class="st0" d="M63.7,26.8c0,0.1-0.1,0.1-0.2,0.1h-0.7c-0.1,0-0.1,0-0.1-0.1c0,0,0,0,0,0l0.8-3.7c0,0,0-0.1,0-0.1
			c0,0,0.1,0,0.1,0h0.8c0.1,0,0.1,0,0.2,0.1l0.9,2.2l0.5-2.2c0,0,0-0.1,0-0.1s0.1,0,0.1,0h0.7c0,0,0,0,0.1,0c0,0,0,0,0,0.1
			c0,0,0,0,0,0l-0.8,3.7c0,0.1-0.1,0.1-0.2,0.1h-0.8c-0.1,0-0.1,0-0.2-0.1l-0.9-2.3L63.7,26.8z"/>
		<path class="st0" d="M69.5,26l0.1-0.7c0-0.1,0.1-0.1,0.1-0.1h0.7c0,0,0,0,0.1,0c0,0,0,0,0,0.1c0,0,0,0,0,0l-0.3,1.3
			c0,0,0,0.1,0,0.1c0,0,0,0-0.1,0.1C69.9,26.9,69.4,27,69,27c-0.3,0-0.6-0.1-0.9-0.2c-0.3-0.1-0.5-0.3-0.6-0.6
			c-0.1-0.3-0.2-0.6-0.2-0.9c0-0.1,0-0.2,0-0.3c0.1-0.4,0.2-0.7,0.4-1c0.2-0.3,0.5-0.5,0.9-0.7s0.7-0.3,1.1-0.3c0.2,0,0.4,0,0.6,0.1
			c0.2,0.1,0.3,0.2,0.5,0.3c0,0,0,0,0,0.1c0,0,0,0.1,0,0.1l-0.5,0.6c0,0-0.1,0-0.1,0c0,0,0,0-0.1,0C70.1,24.1,70,24,69.9,24
			c-0.1,0-0.2-0.1-0.3-0.1c-0.2,0-0.4,0-0.6,0.1s-0.3,0.2-0.4,0.4c-0.1,0.2-0.2,0.3-0.2,0.5c0,0.1,0,0.2,0,0.2c0,0.2,0,0.3,0.1,0.4
			c0.1,0.1,0.2,0.2,0.3,0.3C68.8,26,69,26,69.1,26C69.2,26,69.4,26,69.5,26z"/>
		<path class="st0" d="M73.8,23h2.5c0,0,0.1,0,0.1,0.1c0,0,0,0,0,0l-0.1,0.3c0,0.1,0,0.1-0.1,0.1h-2.1l-0.3,1.3h1.7
			c0,0,0.1,0,0.1,0.1c0,0,0,0,0,0l-0.1,0.3c0,0.1,0,0.1-0.1,0.1h-1.7l-0.3,1.5c0,0.1,0,0.1-0.1,0.1H73c0,0-0.1,0-0.1-0.1
			c0,0,0,0,0,0l0.8-3.7C73.7,23,73.7,23,73.8,23z"/>
		<path class="st0" d="M77.2,23C77.2,23,77.3,23,77.2,23l0.4,0c0,0,0.1,0,0.1,0.1c0,0,0,0,0,0L77,26.4h1.9c0.1,0,0.1,0,0.1,0.1
			c0,0,0,0,0,0l-0.1,0.3c0,0.1-0.1,0.1-0.1,0.1h-2.3c0,0-0.1,0-0.1-0.1c0,0,0,0,0,0L77.2,23C77.2,23.1,77.2,23.1,77.2,23z"/>
		<path class="st0" d="M79.6,23.1C79.6,23.1,79.6,23.1,79.6,23.1C79.6,23.1,79.6,23.1,79.6,23.1c0-0.1,0.1-0.1,0.1-0.1H80
			c0,0,0,0,0,0c0,0,0,0,0,0.1l0.6,1.7l1.3-1.7c0,0,0,0,0.1-0.1c0,0,0,0,0.1,0h0.4c0,0,0,0,0,0c0,0,0,0,0,0c0,0,0,0,0,0.1l-1.7,2.1
			l-0.3,1.5c0,0.1,0,0.1-0.1,0.1h-0.3c0,0-0.1,0-0.1-0.1c0,0,0,0,0,0l0.3-1.5L79.6,23.1z"/>
		<path class="st0" d="M84.3,26.8c0,0.1-0.1,0.1-0.1,0.1H84c0,0,0,0-0.1,0c0,0,0,0,0-0.1l-0.7-3.7c0,0,0-0.1,0-0.1c0,0,0,0,0.1,0
			h0.3c0,0,0,0,0.1,0c0,0,0,0,0,0.1l0.6,3.1l1.9-3.1c0,0,0-0.1,0.1-0.1c0,0,0,0,0.1,0h0.4c0,0,0,0,0,0c0,0,0,0,0,0c0,0,0,0,0,0.1
			l-0.9,1.5l0.3,1.5l1.9-3.1c0,0,0-0.1,0.1-0.1c0,0,0,0,0.1,0h0.4c0,0,0,0,0,0c0,0,0,0,0,0c0,0,0,0,0,0.1l-2.3,3.7
			c0,0.1-0.1,0.1-0.1,0.1h-0.2c0,0,0,0-0.1,0c0,0,0,0,0-0.1l-0.3-1.6L84.3,26.8z"/>
		<path class="st0" d="M90,23h0.2c0,0,0.1,0,0.1,0.1l0.7,3.7c0,0,0,0,0,0c0,0,0,0,0,0.1c0,0,0,0-0.1,0h-0.4c0,0-0.1,0-0.1-0.1
			l-0.1-0.7h-1.8l-0.5,0.7c0,0,0,0-0.1,0.1c0,0,0,0-0.1,0h-0.4c0,0-0.1,0-0.1-0.1c0,0,0,0,0-0.1l2.3-3.7C89.9,23,90,23,90,23z
			 M90.3,25.6L90,23.8l-1.1,1.8H90.3z"/>
		<path class="st0" d="M91.8,23.1C91.8,23.1,91.8,23.1,91.8,23.1C91.8,23.1,91.8,23.1,91.8,23.1c0-0.1,0.1-0.1,0.1-0.1h0.4
			c0,0,0,0,0,0c0,0,0,0,0,0.1l0.6,1.7l1.3-1.7c0,0,0,0,0.1-0.1c0,0,0,0,0.1,0h0.4c0,0,0,0,0,0c0,0,0,0,0,0c0,0,0,0,0,0.1l-1.7,2.1
			l-0.3,1.5c0,0.1,0,0.1-0.1,0.1h-0.3c0,0-0.1,0-0.1-0.1c0,0,0,0,0,0l0.3-1.5L91.8,23.1z"/>
		<path class="st0" d="M98.9,25.8C98.9,25.8,98.9,25.8,98.9,25.8l0.4,0.7c0,0,0,0,0,0.1c0,0,0,0,0,0.1c0,0,0,0-0.1,0.1
			c-0.2,0.1-0.4,0.2-0.5,0.3C98.5,26.9,98.3,27,98,27c-0.3,0-0.6-0.1-0.9-0.2c-0.3-0.1-0.5-0.3-0.6-0.6c-0.1-0.3-0.2-0.5-0.2-0.9
			c0-0.1,0-0.2,0-0.3c0.1-0.4,0.2-0.7,0.4-1c0.2-0.3,0.5-0.5,0.9-0.7C98,23,98.4,23,98.8,23c0.2,0,0.4,0,0.6,0.1
			c0.2,0.1,0.3,0.2,0.5,0.3c0,0,0,0,0,0.1c0,0,0,0,0,0.1l-0.5,0.6c0,0-0.1,0-0.1,0c0,0-0.1,0-0.1,0C99.1,24.1,99,24,98.9,24
			c-0.1,0-0.2,0-0.3,0c-0.2,0-0.4,0-0.5,0.1c-0.2,0.1-0.3,0.2-0.4,0.4c-0.1,0.2-0.2,0.3-0.2,0.5c0,0.1,0,0.2,0,0.2
			c0,0.2,0,0.3,0.1,0.4c0.1,0.1,0.2,0.2,0.3,0.3C97.9,26,98,26,98.2,26c0.2,0,0.4-0.1,0.6-0.2C98.8,25.8,98.9,25.8,98.9,25.8z"/>
		<path class="st0" d="M102.1,23h0.6c0.1,0,0.1,0,0.1,0.1l0.7,3.7c0,0,0,0,0,0c0,0.1,0,0.1-0.1,0.1h-0.8c-0.1,0-0.1,0-0.1-0.1
			l-0.1-0.5h-1.4l-0.3,0.5c0,0.1-0.1,0.1-0.2,0.1h-0.8c-0.1,0-0.1,0-0.1,0c0,0,0,0,0-0.1l2.2-3.7C102,23.1,102,23,102.1,23z
			 M102.4,25.4l-0.2-1.2l-0.7,1.2H102.4z"/>
		<path class="st0" d="M105.2,23h1.6c0.2,0,0.4,0,0.5,0.1c0.2,0.1,0.3,0.2,0.4,0.3c0.1,0.1,0.1,0.3,0.1,0.5c0,0.1,0,0.1,0,0.2
			c0,0.1-0.1,0.2-0.1,0.4c-0.1,0.1-0.1,0.2-0.2,0.3c0.1,0.1,0.1,0.2,0.2,0.3c0,0.1,0.1,0.3,0.1,0.4c0,0.1,0,0.1,0,0.2
			c0,0.2-0.1,0.4-0.3,0.6c-0.1,0.2-0.3,0.3-0.5,0.4c-0.2,0.1-0.4,0.2-0.6,0.2h-1.9c-0.1,0-0.1,0-0.1-0.1c0,0,0,0,0,0l0.8-3.7
			C105.1,23.1,105.1,23,105.2,23z M105.4,26.1h0.7c0.1,0,0.1,0,0.2-0.1c0.1,0,0.1-0.1,0.2-0.2c0.1-0.1,0.1-0.1,0.1-0.2
			c0,0,0-0.1,0-0.1c0-0.1,0-0.2-0.1-0.2c-0.1-0.1-0.1-0.1-0.2-0.1h-0.7L105.4,26.1z M105.8,24.6h0.6c0.1,0,0.2,0,0.3-0.1
			c0.1-0.1,0.1-0.2,0.2-0.3c0,0,0-0.1,0-0.1c0-0.1,0-0.2-0.1-0.2s-0.1-0.1-0.2-0.1h-0.6L105.8,24.6z"/>
		<path class="st0" d="M108.9,23C109,23,109,23,108.9,23l0.9,0c0.1,0,0.1,0,0.1,0.1c0,0,0,0,0,0l-0.6,2.9h1.5c0.1,0,0.1,0,0.1,0.1
			c0,0,0,0,0,0l-0.2,0.7c0,0.1-0.1,0.1-0.1,0.1h-2.4c-0.1,0-0.1,0-0.1-0.1c0,0,0,0,0,0L108.9,23C108.9,23.1,108.9,23.1,108.9,23z"/>
		<path class="st0" d="M112.4,23h2.6c0.1,0,0.1,0,0.1,0.1c0,0,0,0,0,0l-0.1,0.7c0,0.1-0.1,0.1-0.1,0.1h-1.7l-0.1,0.6h1.3
			c0.1,0,0.1,0,0.1,0.1c0,0,0,0,0,0l-0.1,0.5c0,0.1-0.1,0.1-0.2,0.1h-1.3l-0.1,0.7h1.8c0.1,0,0.1,0,0.1,0.1c0,0,0,0,0,0l-0.1,0.7
			c0,0.1-0.1,0.1-0.1,0.1h-2.7c-0.1,0-0.1,0-0.1-0.1c0,0,0,0,0,0l0.8-3.7C112.3,23.1,112.3,23,112.4,23z"/>
		<path class="st0" d="M119.4,25.8C119.4,25.8,119.4,25.8,119.4,25.8l0.4,0.7c0,0,0,0,0,0.1c0,0,0,0,0,0.1c0,0,0,0-0.1,0.1
			c-0.2,0.1-0.4,0.2-0.5,0.3c-0.2,0.1-0.4,0.1-0.6,0.1c-0.3,0-0.6-0.1-0.9-0.2c-0.3-0.1-0.5-0.3-0.6-0.6c-0.1-0.3-0.2-0.5-0.2-0.9
			c0-0.1,0-0.2,0-0.3c0.1-0.4,0.2-0.7,0.4-1c0.2-0.3,0.5-0.5,0.9-0.7c0.3-0.2,0.7-0.3,1.1-0.3c0.2,0,0.4,0,0.6,0.1
			c0.2,0.1,0.3,0.2,0.5,0.3c0,0,0,0,0,0.1c0,0,0,0,0,0.1l-0.5,0.6c0,0-0.1,0-0.1,0c0,0-0.1,0-0.1,0c-0.1-0.1-0.1-0.1-0.2-0.2
			c-0.1,0-0.2,0-0.3,0c-0.2,0-0.4,0-0.5,0.1c-0.2,0.1-0.3,0.2-0.4,0.4c-0.1,0.2-0.2,0.3-0.2,0.5c0,0.1,0,0.2,0,0.2
			c0,0.2,0,0.3,0.1,0.4c0.1,0.1,0.2,0.2,0.3,0.3c0.1,0.1,0.3,0.1,0.4,0.1c0.2,0,0.4-0.1,0.6-0.2C119.3,25.8,119.3,25.8,119.4,25.8z"
			/>
		<path class="st0" d="M122.6,23h0.6c0.1,0,0.1,0,0.1,0.1l0.7,3.7c0,0,0,0,0,0c0,0.1,0,0.1-0.1,0.1h-0.8c-0.1,0-0.1,0-0.1-0.1
			l-0.1-0.5h-1.4l-0.3,0.5c0,0.1-0.1,0.1-0.2,0.1h-0.8c-0.1,0-0.1,0-0.1,0c0,0,0,0,0-0.1l2.2-3.7C122.5,23.1,122.5,23,122.6,23z
			 M122.8,25.4l-0.2-1.2l-0.7,1.2H122.8z"/>
		<path class="st0" d="M125.6,23.1C125.6,23,125.7,23,125.6,23.1l1.8,0c0.2,0,0.4,0,0.6,0.1c0.2,0.1,0.3,0.2,0.4,0.4
			c0.1,0.2,0.1,0.3,0.1,0.5c0,0.1,0,0.2,0,0.2c0,0.2-0.1,0.5-0.3,0.6c-0.2,0.2-0.3,0.3-0.6,0.4l0.5,1.4c0,0,0,0,0,0c0,0,0,0,0,0.1
			c0,0,0,0-0.1,0H127c0,0-0.1,0-0.1,0c0,0,0,0,0-0.1l-0.4-1.2H126l-0.3,1.2c0,0.1-0.1,0.1-0.1,0.1h-0.8c-0.1,0-0.1,0-0.1-0.1
			c0,0,0,0,0,0L125.6,23.1C125.6,23.1,125.6,23.1,125.6,23.1z M126.2,24.8h0.6c0.1,0,0.2,0,0.3-0.1c0.1,0,0.1-0.1,0.2-0.2
			c0.1-0.1,0.1-0.1,0.1-0.2c0,0,0-0.1,0-0.1c0-0.1,0-0.2-0.1-0.3c-0.1-0.1-0.1-0.1-0.3-0.1h-0.6L126.2,24.8z"/>
	</g>
	<g>
		<path class="st1" d="M35.4,23.5c-2.4-2.3-3.7-2.3-7.8,0.3c-2.3,1.4-4.6,2.8-9.3,5.9c-3,2,2.2,2.8,5.4,3.1c5,0.6,11,0.3,14-0.7
			c3.9-1.3,3.5-2.4,2-4.3C39,27,37.2,25.2,35.4,23.5z"/>
		<path class="st1" d="M15,14.3c2.4-3.3,3.9-5.2,8.5-11.1c2-2.5,4.2-4,7.3,0.4c1.3,1.8,2.2,3.2,6.4,9.6c2.2,3.3,1.7,3.9-1.5,5.1
			c-2.3,0.9-6.6,1.3-10.9,1.2C15,19.2,13.6,16.3,15,14.3z"/>
		<path class="st1" d="M15,10.7c-2.7-3.7-4.1-3.4-6.7,0.1c-2.1,2.8-2.8,3.9-6.5,9.1c-2.2,3.1-0.9,3.9,2.5,4.8c4.1,1,9,1.1,14.3-0.1
			c4.6-1.1,4.4-2.3,3.2-4.4C20.6,18.2,17.2,13.7,15,10.7z"/>
		<path class="st0" d="M10.9,19.2c-0.3,0-0.6,0-0.9,0l0-0.4c4.4,0.3,12.7-1.6,13.1-5.3c0.2-2-2.1-2.9-4.2-3.7
			c-1.9-0.7-3.7-1.4-3.2-2.9L16.2,7c-0.4,1.1,0.9,1.6,2.9,2.4c2.2,0.8,4.7,1.8,4.5,4.1C23.2,17.4,15.5,19.2,10.9,19.2z"/>
		<path class="st1" d="M24.1,13.5l-0.5,0c0.2-2.3-2.1-3.2-4.4-4c-2-0.7-4-1.5-3.3-3.4c0.8-2.2,5.5-3.5,8.5-3.5V3
			c-2.7,0-7.4,1.3-8.1,3.2c-0.5,1.4,0.8,2,3.1,2.8C21.8,9.9,24.3,10.8,24.1,13.5z"/>
		<polygon class="st2" points="10.7,17.3 8.9,17.3 8,19 8.9,20.8 10.7,20.8 11.6,19 		"/>
	</g>
	<g>
		<path class="st0" d="M53.7,7.4l1.7,0l0.4-1.9l-3.5,0l0.3-1.9l-2.3,0l-0.3,1.9l-3.5,0l-0.3,1.9l1.7,0c-0.9,1-1.7,2.4-2,4.2
			c-0.6,3.5,0.6,6,3,6c2.4,0,4.5-2.5,5.2-6C54.5,9.9,54.3,8.4,53.7,7.4z M52.1,11.7c-0.4,2.3-1.5,4.1-2.7,4.1
			c-1.2,0-1.6-1.8-1.2-4.1c0.4-2.3,1.5-4.1,2.7-4.1C52,7.6,52.5,9.4,52.1,11.7z"/>
		<polygon class="st0" points="59,4.3 56.9,4.3 54.3,18.8 56.4,18.8 57.7,11.5 59.7,11.5 60,9.6 58.1,9.6 		"/>
		<path class="st0" d="M66.7,13.2c-3.1,0-5.5,1.1-5.8,3c-0.3,1.9,1.6,3,4.7,3c3.2,0,5.5-1.1,5.8-3C71.8,14.4,69.9,13.2,66.7,13.2z
			 M69.3,16.2c-0.1,0.7-1.4,1.1-3.3,1.1s-3-0.4-2.9-1.1c0.1-0.7,1.4-1.1,3.3-1.1S69.5,15.5,69.3,16.2z"/>
		<path class="st0" d="M68.5,9.6l4.2,0L73,7.8l-8.3,0L65,6.2l8.1,0l0.3-1.8l-10.2,0l-0.8,4.3c-0.1,0.5,0.2,1,0.7,1l3.2,0l-0.2,1.2
			l-5.4,0l-0.3,1.7l12.9,0l0.3-1.7l-5.4,0L68.5,9.6z"/>
		<path class="st0" d="M95,4.3c-2.4,0-4.6,2.7-5.3,6.6c-0.7,3.9,0.5,6.6,2.9,6.6c2.4,0,4.6-2.7,5.3-6.6C98.6,6.9,97.4,4.2,95,4.3z
			 M95.8,10.9c-0.5,2.7-1.7,4.7-2.9,4.7c-1.2,0-1.7-2-1.2-4.7c0.5-2.7,1.7-4.6,2.9-4.6C95.8,6.2,96.3,8.2,95.8,10.9z"/>
		<polygon class="st0" points="103.5,11.9 116.4,11.9 116.7,10.3 103.7,10.3 		"/>
		<polygon class="st0" points="132.4,9.8 130,9.8 131,4.1 128.9,4.1 126.3,18.6 128.4,18.6 129.6,11.7 132,11.7 		"/>
		<path class="st0" d="M106.2,9.6c0.1,0,0.2,0,0.3,0h0.9h6h0.7h1.5l1-5.5h-2.1l-0.3,1.5h-6l0.3-1.5h-2.1c0,0-0.7,3.7-0.8,4.5
			C105.3,9.3,105.7,9.6,106.2,9.6z M113.8,7l-0.2,1.1h-6l0.2-1.1H113.8z"/>
		<polygon class="st0" points="84,18.6 86,18.6 88.6,4.1 86.7,4.1 		"/>
		<path class="st0" d="M83.8,4.1l-1,5.3h-1.2c0.3-1.3,0.5-3,0.8-5l-6.2,0l-0.3,1.9l4.2,0c0,0-0.2,1.4-0.5,3c0,0,0,0,0,0.1h-4.1
			l-0.3,1.9h3.9c-0.1,0.4-0.3,0.8-0.5,1.2c-0.7,1.3-2,2.5-4,3.2l0.7,1.6c1.1-0.4,2.7-1.1,3.9-2.4c0.9-0.9,1.5-2,2-3.6h1.4l-1.3,7.3
			h2l2.6-14.5H83.8z"/>
		<polygon class="st0" points="98.1,18.6 100.1,18.6 102.8,4.1 100.7,4.1 		"/>
		<path class="st0" d="M112.9,12.6l-8.3,0l-0.3,1.5h8.3l-0.1,0.7l-6.2,0l0,0h-2.1c0,0-0.3,1.9-0.5,2.8c-0.1,0.7,0.3,1,0.7,1
			c0.3,0,0.6,0,0.8,0h0.3h8.3l0.3-1.6l-8.3,0l0.1-0.8h6.2h2.1h0l0.6-3.6L112.9,12.6L112.9,12.6z"/>
		<path class="st0" d="M119.6,4.4l-0.3,1.9l5.2,0c0,0-0.2,1.5-0.5,2.8c0,0.1,0,0.2-0.1,0.3h-5l-0.3,1.9h4.7
			c-0.4,0.8-0.9,1.7-1.8,2.4c-1.2,0.9-2.6,1.6-3.9,2.1l0.7,1.7c1.4-0.4,3.6-1.3,5.1-3c0.9-1,1.6-1.8,2.3-4.5c0.3-1.1,1-5.1,1-5.5
			L119.6,4.4z"/>
	</g>
</g>
</svg>
